<svg xmlns="http://www.w3.org/2000/svg" viewBox="0 0 72 80" fill="none"><rect x="0" y="8" width="72" height="64" rx="16" fill="#3B82F6"/><path d="M18 24 C18 24 18 40 18 56 C18 24 30 22 32 28 C34 34 30 38 26 38 L34 56" stroke="white" stroke-width="5" stroke-linecap="round" stroke-linejoin="round" fill="none"/><path d="M44 52 C44 56 50 60 56 56 C58 54 58 50 58 48 L58 34" stroke="white" stroke-width="5" stroke-linecap="round" stroke-linejoin="round" fill="none"/><circle cx="58" cy="30" r="3" fill="white"/><path d="M12 38 L8 42 L12 46" stroke="rgba(255,255,255,0.5)" stroke-width="2.5" stroke-linecap="round" stroke-linejoin="round" fill="none"/><path d="M64 38 L68 42 L64 46" stroke="rgba(255,255,255,0.5)" stroke-width="2.5" stroke-linecap="round" stroke-linejoin="round" fill="none"/><line x1="64" y1="36" x2="68" y2="50" stroke="rgba(255,255,255,0.5)" stroke-width="2.5" stroke-linecap="round"/></svg>
