<svg xmlns="http://www.w3.org/2000/svg" viewBox="0 0 320 80" fill="none"><defs><linearGradient id="accentGrad" x1="0" y1="0" x2="1" y2="1"><stop offset="0%" stop-color="#3B82F6"/><stop offset="100%" stop-color="#60A5FA"/></linearGradient></defs><rect x="0" y="8" width="72" height="64" rx="16" fill="#3B82F6"/><path d="M18 24 C18 24 18 40 18 56 C18 24 30 22 32 28 C34 34 30 38 26 38 L34 56" stroke="white" stroke-width="5" stroke-linecap="round" stroke-linejoin="round" fill="none"/><path d="M44 52 C44 56 50 60 56 56 C58 54 58 50 58 48 L58 34" stroke="white" stroke-width="5" stroke-linecap="round" stroke-linejoin="round" fill="none"/><circle cx="58" cy="30" r="3" fill="white"/><path d="M14 40 L10 44 L14 48" stroke="rgba(255,255,255,0.4)" stroke-width="2.5" stroke-linecap="round" stroke-linejoin="round" fill="none"/><path d="M62 40 L66 44 L62 48" stroke="rgba(255,255,255,0.4)" stroke-width="2.5" stroke-linecap="round" stroke-linejoin="round" fill="none"/><line x1="62" y1="38" x2="66" y2="52" stroke="rgba(255,255,255,0.4)" stroke-width="2.5" stroke-linecap="round"/><text x="92" y="52" font-family="Segoe UI,Helvetica Neue,Arial,sans-serif" font-size="32" font-weight="700" fill="white" letter-spacing="4">RAJAN</text><rect x="92" y="58" width="110" height="14" rx="7" fill="#3B82F6" opacity="0.2"/><text x="92" y="69" font-family="Segoe UI,Helvetica Neue,Arial,sans-serif" font-size="9" font-weight="500" fill="#60A5FA" letter-spacing="2.5">FULL-STACK DEVELOPER</text></svg>
